<?xml version="1.0" encoding="UTF-8" standalone="no"?>
<svg
   xmlns:dc="http://purl.org/dc/elements/1.1/"
   xmlns:cc="http://creativecommons.org/ns#"
   xmlns:rdf="http://www.w3.org/1999/02/22-rdf-syntax-ns#"
   xmlns:svg="http://www.w3.org/2000/svg"
   xmlns="http://www.w3.org/2000/svg"
   xmlns:xlink="http://www.w3.org/1999/xlink"
   xmlns:sodipodi="http://sodipodi.sourceforge.net/DTD/sodipodi-0.dtd"
   xmlns:inkscape="http://www.inkscape.org/namespaces/inkscape"
   height="334.96909pt"
   version="1.1"
   viewBox="0 0 414.11579 334.96908"
   width="414.11578pt"
   id="svg259"
   sodipodi:docname="day10_viz.svg"
   inkscape:version="1.0.1 (3bc2e813f5, 2020-09-07)"
   inkscape:export-filename="/home/meithan/owncloud/AoC/AoC20/day10_viz.png"
   inkscape:export-xdpi="199.94189"
   inkscape:export-ydpi="199.94189">
  <sodipodi:namedview
     pagecolor="#ffffff"
     bordercolor="#666666"
     borderopacity="1"
     objecttolerance="10"
     gridtolerance="10"
     guidetolerance="10"
     inkscape:pageopacity="1"
     inkscape:pageshadow="2"
     inkscape:window-width="2560"
     inkscape:window-height="1380"
     id="namedview261"
     showgrid="false"
     fit-margin-top="0"
     fit-margin-left="0"
     fit-margin-right="0"
     fit-margin-bottom="0"
     inkscape:zoom="1.8207465"
     inkscape:cx="264.97289"
     inkscape:cy="260.70134"
     inkscape:window-x="2560"
     inkscape:window-y="32"
     inkscape:window-maximized="1"
     inkscape:current-layer="figure_1" />
  <metadata
     id="metadata2">
    <rdf:RDF>
      <cc:Work>
        <dc:type
           rdf:resource="http://purl.org/dc/dcmitype/StillImage" />
        <dc:date>2020-12-10T14:34:08.566964</dc:date>
        <dc:format>image/svg+xml</dc:format>
        <dc:creator>
          <cc:Agent>
            <dc:title>Matplotlib v3.3.3, https://matplotlib.org/</dc:title>
          </cc:Agent>
        </dc:creator>
        <dc:title></dc:title>
      </cc:Work>
    </rdf:RDF>
  </metadata>
  <defs
     id="defs6">
    <style
       type="text/css"
       id="style4">*{stroke-linecap:butt;stroke-linejoin:round;}</style>
  </defs>
  <g
     id="figure_1"
     transform="translate(-22.785446,6.2222123)">
    <g
       id="axes_1">
      <g
         id="patch_2">
        <path
           clip-path="url(#pa8e7421a80)"
           d="m 48.473805,128.93164 q 15.121459,-3.05279 29.146994,-5.88432"
           style="fill:none;stroke:#000000;stroke-linecap:round"
           id="path11" />
        <path
           clip-path="url(#pa8e7421a80)"
           d="m 71.577448,121.41088 6.043351,1.63644 -4.935157,3.85282 z"
           style="stroke:#000000;stroke-linecap:round"
           id="path13" />
      </g>
      <g
         id="patch_3">
        <path
           clip-path="url(#pa8e7421a80)"
           d="M 94.893868,117.12511 Q 110.72281,108.91789 125.55921,101.2253"
           style="fill:none;stroke:#000000;stroke-linecap:round"
           id="path16" />
        <path
           clip-path="url(#pa8e7421a80)"
           d="m 119.2989,101.31725 6.26031,-0.0919 -3.68263,5.06342 z"
           style="stroke:#000000;stroke-linecap:round"
           id="path18" />
      </g>
      <g
         id="patch_4">
        <path
           clip-path="url(#pa8e7421a80)"
           d="m 135.07464,88.105138 q 1.97187,-20.333093 3.83582,-39.553372"
           style="fill:none;stroke:#000000;stroke-linecap:round"
           id="path21" />
        <path
           clip-path="url(#pa8e7421a80)"
           d="m 135.58299,53.855345 3.32747,-5.303579 2.24638,5.844121 z"
           style="stroke:#000000;stroke-linecap:round"
           id="path23" />
      </g>
      <g
         id="patch_5">
        <path
           clip-path="url(#pa8e7421a80)"
           d="M 138.27173,89.063388 Q 151.80303,63.35763 164.81355,38.641211"
           style="fill:none;stroke:#000000;stroke-linecap:round"
           id="path26" />
        <path
           clip-path="url(#pa8e7421a80)"
           d="m 159.72738,42.292359 5.08617,-3.651148 -0.13078,6.259624 z"
           style="stroke:#000000;stroke-linecap:round"
           id="path28" />
      </g>
      <g
         id="patch_6">
        <path
           clip-path="url(#pa8e7421a80)"
           d="m 142.87371,96.082618 q 14.15937,-1.053413 27.2038,-2.023878"
           style="fill:none;stroke:#000000;stroke-linecap:round"
           id="path31" />
        <path
           clip-path="url(#pa8e7421a80)"
           d="m 164.2852,91.681931 5.79231,2.376809 -5.37683,3.207758 z"
           style="stroke:#000000;stroke-linecap:round"
           id="path33" />
      </g>
      <g
         id="patch_7">
        <path
           clip-path="url(#pa8e7421a80)"
           d="m 148.15116,36.338248 q 6.46045,-1.933044 11.84978,-3.545598"
           style="fill:none;stroke:#000000;stroke-linecap:round"
           id="path36" />
        <path
           clip-path="url(#pa8e7421a80)"
           d="m 153.83332,31.715424 6.16762,1.077226 -4.56235,4.287763 z"
           style="stroke:#000000;stroke-linecap:round"
           id="path38" />
      </g>
      <g
         id="patch_8">
        <path
           clip-path="url(#pa8e7421a80)"
           d="m 144.97582,45.804526 q 14.8677,20.27301 29.07422,39.644449"
           style="fill:none;stroke:#000000;stroke-linecap:round"
           id="path41" />
        <path
           clip-path="url(#pa8e7421a80)"
           d="m 172.99617,79.277317 1.05387,6.171658 -5.56965,-2.859902 z"
           style="stroke:#000000;stroke-linecap:round"
           id="path43" />
      </g>
      <g
         id="patch_9">
        <path
           clip-path="url(#pa8e7421a80)"
           d="m 170.77962,38.538134 q 3.82035,23.12496 7.45847,45.146838"
           style="fill:none;stroke:#000000;stroke-linecap:round"
           id="path46" />
        <path
           clip-path="url(#pa8e7421a80)"
           d="m 180.08787,77.703475 -1.84978,5.981497 -3.67532,-5.068722 z"
           style="stroke:#000000;stroke-linecap:round"
           id="path48" />
      </g>
      <g
         id="patch_10">
        <path
           clip-path="url(#pa8e7421a80)"
           d="m 187.40607,97.533627 q 15.93821,8.839363 30.8987,17.136473"
           style="fill:none;stroke:#000000;stroke-linecap:round"
           id="path51" />
        <path
           clip-path="url(#pa8e7421a80)"
           d="m 214.76552,109.50544 3.53925,5.16466 -6.25528,-0.2674 z"
           style="stroke:#000000;stroke-linecap:round"
           id="path53" />
      </g>
      <g
         id="patch_11">
        <path
           clip-path="url(#pa8e7421a80)"
           d="m 234.00913,114.53623 q 14.95311,-10.19101 28.98234,-19.752366"
           style="fill:none;stroke:#000000;stroke-linecap:round"
           id="path56" />
        <path
           clip-path="url(#pa8e7421a80)"
           d="m 256.78709,95.623897 6.20438,-0.840033 -3.0506,5.467526 z"
           style="stroke:#000000;stroke-linecap:round"
           id="path58" />
      </g>
      <g
         id="patch_12">
        <path
           clip-path="url(#pa8e7421a80)"
           d="m 232.94213,125.57664 q 13.72551,13.90002 26.66547,27.00449"
           style="fill:none;stroke:#000000;stroke-linecap:round"
           id="path61" />
        <path
           clip-path="url(#pa8e7421a80)"
           d="m 257.66526,146.62904 1.94234,5.95209 -5.92708,-2.01738 z"
           style="stroke:#000000;stroke-linecap:round"
           id="path63" />
      </g>
      <g
         id="patch_13">
        <path
           clip-path="url(#pa8e7421a80)"
           d="m 270.50544,97.919178 q -1.73115,26.490642 -3.38938,51.865632"
           style="fill:none;stroke:#000000;stroke-linecap:round"
           id="path66" />
        <path
           clip-path="url(#pa8e7421a80)"
           d="m 270.27528,144.37931 -3.15922,5.4055 -2.42886,-5.77067 z"
           style="stroke:#000000;stroke-linecap:round"
           id="path68" />
      </g>
      <g
         id="patch_14">
        <path
           clip-path="url(#pa8e7421a80)"
           d="m 270.83358,167.02089 q 11.52147,19.79271 22.48048,38.61916"
           style="fill:none;stroke:#000000;stroke-linecap:round"
           id="path71" />
        <path
           clip-path="url(#pa8e7421a80)"
           d="m 292.91668,199.39168 0.39738,6.24837 -5.23712,-3.43112 z"
           style="stroke:#000000;stroke-linecap:round"
           id="path73" />
      </g>
      <g
         id="patch_15">
        <path
           clip-path="url(#pa8e7421a80)"
           d="m 303.91711,220.62013 q 13.08318,15.02991 25.43229,29.21652"
           style="fill:none;stroke:#000000;stroke-linecap:round"
           id="path76" />
        <path
           clip-path="url(#pa8e7421a80)"
           d="m 327.78455,243.77437 1.56485,6.06228 -5.78873,-2.38549 z"
           style="stroke:#000000;stroke-linecap:round"
           id="path78" />
      </g>
      <g
         id="patch_16">
        <path
           clip-path="url(#pa8e7421a80)"
           d="m 342.47,262.701 q 13.91137,11.3956 26.95784,22.08271"
           style="fill:none;stroke:#000000;stroke-linecap:round"
           id="path81" />
        <path
           clip-path="url(#pa8e7421a80)"
           d="m 366.87008,279.06901 2.55776,5.7147 -6.10642,-1.38261 z"
           style="stroke:#000000;stroke-linecap:round"
           id="path83" />
      </g>
      <g
         id="patch_17">
        <path
           clip-path="url(#pa8e7421a80)"
           d="m 384.54154,295.22296 q 14.36012,8.07129 27.74561,15.59477"
           style="fill:none;stroke:#000000;stroke-linecap:round"
           id="path86" />
        <path
           clip-path="url(#pa8e7421a80)"
           d="m 408.77734,305.63303 3.50981,5.1847 -6.25365,-0.30297 z"
           style="stroke:#000000;stroke-linecap:round"
           id="path88" />
      </g>
      <g
         id="PathCollection_1">
        <defs
           id="defs92">
          <path
             d="m 0,8.660254 c 2.296726,0 4.499694,-0.912499 6.123724,-2.53653 C 7.747755,4.499694 8.660254,2.296726 8.660254,0 c 0,-2.296726 -0.912499,-4.499694 -2.53653,-6.123724 C 4.499694,-7.747755 2.296726,-8.660254 0,-8.660254 c -2.296726,0 -4.499694,0.912499 -6.123724,2.53653 -1.624031,1.62403 -2.53653,3.826998 -2.53653,6.123724 0,2.296726 0.912499,4.499694 2.53653,6.123724 1.62403,1.624031 3.826998,2.53653 6.123724,2.53653 z"
             id="m9241551241"
             style="stroke:#1f78b4" />
        </defs>
        <g
           clip-path="url(#pa8e7421a80)"
           id="g120">
          <use
             style="fill:#1f78b4;stroke:#1f78b4"
             x="39.986778"
             xlink:href="#m9241551241"
             y="130.64503"
             id="use94"
             width="100%"
             height="100%" />
          <use
             style="fill:#1f78b4;stroke:#1f78b4"
             x="87.202896"
             xlink:href="#m9241551241"
             y="121.11284"
             id="use96"
             width="100%"
             height="100%" />
          <use
             style="fill:#1f78b4;stroke:#1f78b4"
             x="134.23869"
             xlink:href="#m9241551241"
             y="96.725037"
             id="use98"
             width="100%"
             height="100%" />
          <use
             style="fill:#1f78b4;stroke:#1f78b4"
             x="139.85414"
             xlink:href="#m9241551241"
             y="38.820812"
             id="use100"
             width="100%"
             height="100%" />
          <use
             style="fill:#1f78b4;stroke:#1f78b4"
             x="169.36743"
             xlink:href="#m9241551241"
             y="29.990084"
             id="use102"
             width="100%"
             height="100%" />
          <use
             style="fill:#1f78b4;stroke:#1f78b4"
             x="179.832"
             xlink:href="#m9241551241"
             y="93.333038"
             id="use104"
             width="100%"
             height="100%" />
          <use
             style="fill:#1f78b4;stroke:#1f78b4"
             x="226.85492"
             xlink:href="#m9241551241"
             y="119.41204"
             id="use106"
             width="100%"
             height="100%" />
          <use
             style="fill:#1f78b4;stroke:#1f78b4"
             x="271.07013"
             xlink:href="#m9241551241"
             y="89.278008"
             id="use108"
             width="100%"
             height="100%" />
          <use
             style="fill:#1f78b4;stroke:#1f78b4"
             x="266.47861"
             xlink:href="#m9241551241"
             y="159.53949"
             id="use110"
             width="100%"
             height="100%" />
          <use
             style="fill:#1f78b4;stroke:#1f78b4"
             x="298.23291"
             xlink:href="#m9241551241"
             y="214.09015"
             id="use112"
             width="100%"
             height="100%" />
          <use
             style="fill:#1f78b4;stroke:#1f78b4"
             x="335.77011"
             xlink:href="#m9241551241"
             y="257.21274"
             id="use114"
             width="100%"
             height="100%" />
          <use
             style="fill:#1f78b4;stroke:#1f78b4"
             x="376.99084"
             xlink:href="#m9241551241"
             y="290.979"
             id="use116"
             width="100%"
             height="100%" />
          <use
             style="fill:#1f78b4;stroke:#1f78b4"
             x="420.81323"
             xlink:href="#m9241551241"
             y="315.60992"
             id="use118"
             width="100%"
             height="100%" />
        </g>
      </g>
      <g
         id="text_1">
        <g
           clip-path="url(#pa8e7421a80)"
           id="g130">
          <!-- 0 -->
          <g
             style="fill:#ffffff"
             transform="matrix(0.1,0,0,-0.1,36.805527,133.40441)"
             id="g128">
            <defs
               id="defs124">
              <path
                 d="m 31.78125,66.40625 q -7.609375,0 -11.453125,-7.5 Q 16.5,51.421875 16.5,36.375 q 0,-14.984375 3.828125,-22.484375 3.84375,-7.5 11.453125,-7.5 7.671875,0 11.5,7.5 3.84375,7.5 3.84375,22.484375 0,15.046875 -3.84375,22.53125 -3.828125,7.5 -11.5,7.5 z m 0,7.8125 q 12.265625,0 18.734375,-9.703125 6.46875,-9.6875 6.46875,-28.140625 0,-18.40625 -6.46875,-28.109375 -6.46875,-9.6875 -18.734375,-9.6875 -12.25,0 -18.71875,9.6875 Q 6.59375,17.96875 6.59375,36.375 q 0,18.453125 6.46875,28.140625 6.46875,9.703125 18.71875,9.703125 z"
                 id="DejaVuSans-48" />
            </defs>
            <use
               xlink:href="#DejaVuSans-48"
               id="use126"
               x="0"
               y="0"
               width="100%"
               height="100%" />
          </g>
        </g>
      </g>
      <g
         id="text_2">
        <g
           clip-path="url(#pa8e7421a80)"
           id="g140">
          <!-- 1 -->
          <g
             style="fill:#ffffff"
             transform="matrix(0.1,0,0,-0.1,84.021644,123.87222)"
             id="g138">
            <defs
               id="defs134">
              <path
                 d="m 12.40625,8.296875 h 16.109375 v 55.625 L 10.984375,60.40625 v 8.984375 l 17.4375,3.515625 H 38.28125 V 8.296875 H 54.390625 V 0 H 12.40625 Z"
                 id="DejaVuSans-49" />
            </defs>
            <use
               xlink:href="#DejaVuSans-49"
               id="use136"
               x="0"
               y="0"
               width="100%"
               height="100%" />
          </g>
        </g>
      </g>
      <g
         id="text_3">
        <g
           clip-path="url(#pa8e7421a80)"
           id="g150">
          <!-- 4 -->
          <g
             style="fill:#ffffff"
             transform="matrix(0.1,0,0,-0.1,131.05745,99.484411)"
             id="g148">
            <defs
               id="defs144">
              <path
                 d="M 37.796875,64.3125 12.890625,25.390625 h 24.90625 z m -2.59375,8.59375 h 12.40625 V 25.390625 h 10.40625 V 17.1875 H 47.609375 V 0 h -9.8125 V 17.1875 H 4.890625 v 9.515625 z"
                 id="DejaVuSans-52" />
            </defs>
            <use
               xlink:href="#DejaVuSans-52"
               id="use146"
               x="0"
               y="0"
               width="100%"
               height="100%" />
          </g>
        </g>
      </g>
      <g
         id="text_4">
        <g
           clip-path="url(#pa8e7421a80)"
           id="g160">
          <!-- 5 -->
          <g
             style="fill:#ffffff"
             transform="matrix(0.1,0,0,-0.1,136.67289,41.580188)"
             id="g158">
            <defs
               id="defs154">
              <path
                 d="m 10.796875,72.90625 h 38.71875 v -8.3125 h -29.6875 V 46.734375 q 2.140625,0.734375 4.28125,1.09375 2.15625,0.359375 4.3125,0.359375 Q 40.625,48.1875 47.75,41.5 54.890625,34.8125 54.890625,23.390625 54.890625,11.625 47.5625,5.09375 40.234375,-1.421875 26.90625,-1.421875 q -4.59375,0 -9.359375,0.78125 -4.75,0.78125 -9.828125,2.34375 V 11.625 q 4.390625,-2.390625 9.078125,-3.5625 4.6875,-1.171875 9.90625,-1.171875 8.453125,0 13.375,4.4375 4.9375,4.4375 4.9375,12.0625 0,7.609375 -4.9375,12.046875 -4.921875,4.453125 -13.375,4.453125 -3.953125,0 -7.890625,-0.875 -3.921875,-0.875 -8.015625,-2.734375 z"
                 id="DejaVuSans-53" />
            </defs>
            <use
               xlink:href="#DejaVuSans-53"
               id="use156"
               x="0"
               y="0"
               width="100%"
               height="100%" />
          </g>
        </g>
      </g>
      <g
         id="text_5">
        <g
           clip-path="url(#pa8e7421a80)"
           id="g170">
          <!-- 6 -->
          <g
             style="fill:#ffffff"
             transform="matrix(0.1,0,0,-0.1,166.18619,32.749458)"
             id="g168">
            <defs
               id="defs164">
              <path
                 d="m 33.015625,40.375 q -6.640625,0 -10.53125,-4.546875 -3.875,-4.53125 -3.875,-12.4375 0,-7.859375 3.875,-12.4375 3.890625,-4.5625 10.53125,-4.5625 6.640625,0 10.515625,4.5625 3.875,4.578125 3.875,12.4375 0,7.90625 -3.875,12.4375 Q 39.65625,40.375 33.015625,40.375 Z M 52.59375,71.296875 V 62.3125 q -3.71875,1.75 -7.5,2.671875 -3.78125,0.9375 -7.5,0.9375 -9.765625,0 -14.921875,-6.59375 -5.140625,-6.59375 -5.875,-19.921875 2.875,4.25 7.21875,6.515625 4.359375,2.265625 9.578125,2.265625 10.984375,0 17.359375,-6.671875 6.375,-6.65625 6.375,-18.125 0,-11.234375 -6.640625,-18.03125 -6.640625,-6.78125 -17.671875,-6.78125 -12.65625,0 -19.34375,9.6875 -6.6875,9.703125 -6.6875,28.109375 0,17.28125 8.203125,27.5625 8.203125,10.28125 22.015625,10.28125 3.71875,0 7.5,-0.734375 3.78125,-0.734375 7.890625,-2.1875 z"
                 id="DejaVuSans-54" />
            </defs>
            <use
               xlink:href="#DejaVuSans-54"
               id="use166"
               x="0"
               y="0"
               width="100%"
               height="100%" />
          </g>
        </g>
      </g>
      <g
         id="text_6">
        <g
           clip-path="url(#pa8e7421a80)"
           id="g180">
          <!-- 7 -->
          <g
             style="fill:#ffffff"
             transform="matrix(0.1,0,0,-0.1,176.65075,96.092411)"
             id="g178">
            <defs
               id="defs174">
              <path
                 d="m 8.203125,72.90625 h 46.875 V 68.703125 L 28.609375,0 H 18.3125 L 43.21875,64.59375 H 8.203125 Z"
                 id="DejaVuSans-55" />
            </defs>
            <use
               xlink:href="#DejaVuSans-55"
               id="use176"
               x="0"
               y="0"
               width="100%"
               height="100%" />
          </g>
        </g>
      </g>
      <g
         id="text_7">
        <g
           clip-path="url(#pa8e7421a80)"
           id="g189">
          <!-- 10 -->
          <g
             style="fill:#ffffff"
             transform="matrix(0.1,0,0,-0.1,220.49243,122.17141)"
             id="g187">
            <use
               xlink:href="#DejaVuSans-49"
               id="use183"
               x="0"
               y="0"
               width="100%"
               height="100%" />
            <use
               x="63.623047"
               xlink:href="#DejaVuSans-48"
               id="use185"
               y="0"
               width="100%"
               height="100%" />
          </g>
        </g>
      </g>
      <g
         id="text_8">
        <g
           clip-path="url(#pa8e7421a80)"
           id="g198">
          <!-- 11 -->
          <g
             style="fill:#ffffff"
             transform="matrix(0.1,0,0,-0.1,264.70763,92.037386)"
             id="g196">
            <use
               xlink:href="#DejaVuSans-49"
               id="use192"
               x="0"
               y="0"
               width="100%"
               height="100%" />
            <use
               x="63.623047"
               xlink:href="#DejaVuSans-49"
               id="use194"
               y="0"
               width="100%"
               height="100%" />
          </g>
        </g>
      </g>
      <g
         id="text_9">
        <g
           clip-path="url(#pa8e7421a80)"
           id="g210">
          <!-- 12 -->
          <g
             style="fill:#ffffff"
             transform="matrix(0.1,0,0,-0.1,260.1161,162.29887)"
             id="g208">
            <defs
               id="defs202">
              <path
                 d="M 19.1875,8.296875 H 53.609375 V 0 H 7.328125 v 8.296875 q 5.609375,5.8125 15.296875,15.59375 9.703125,9.796875 12.1875,12.640625 4.734375,5.3125 6.609375,9 1.890625,3.6875 1.890625,7.25 0,5.8125 -4.078125,9.46875 -4.078125,3.671875 -10.625,3.671875 -4.640625,0 -9.796875,-1.609375 -5.140625,-1.609375 -11,-4.890625 v 9.96875 Q 13.765625,71.78125 18.9375,73 q 5.1875,1.21875 9.484375,1.21875 11.328125,0 18.0625,-5.671875 6.734375,-5.65625 6.734375,-15.125 0,-4.5 -1.6875,-8.53125 Q 49.859375,40.875 45.40625,35.40625 44.1875,33.984375 37.640625,27.21875 31.109375,20.453125 19.1875,8.296875 Z"
                 id="DejaVuSans-50" />
            </defs>
            <use
               xlink:href="#DejaVuSans-49"
               id="use204"
               x="0"
               y="0"
               width="100%"
               height="100%" />
            <use
               x="63.623047"
               xlink:href="#DejaVuSans-50"
               id="use206"
               y="0"
               width="100%"
               height="100%" />
          </g>
        </g>
      </g>
      <g
         id="text_10">
        <g
           clip-path="url(#pa8e7421a80)"
           id="g219">
          <!-- 15 -->
          <g
             style="fill:#ffffff"
             transform="matrix(0.1,0,0,-0.1,291.87042,216.84952)"
             id="g217">
            <use
               xlink:href="#DejaVuSans-49"
               id="use213"
               x="0"
               y="0"
               width="100%"
               height="100%" />
            <use
               x="63.623047"
               xlink:href="#DejaVuSans-53"
               id="use215"
               y="0"
               width="100%"
               height="100%" />
          </g>
        </g>
      </g>
      <g
         id="text_11">
        <g
           clip-path="url(#pa8e7421a80)"
           id="g228">
          <!-- 16 -->
          <g
             style="fill:#ffffff"
             transform="matrix(0.1,0,0,-0.1,329.40762,259.97212)"
             id="g226">
            <use
               xlink:href="#DejaVuSans-49"
               id="use222"
               x="0"
               y="0"
               width="100%"
               height="100%" />
            <use
               x="63.623047"
               xlink:href="#DejaVuSans-54"
               id="use224"
               y="0"
               width="100%"
               height="100%" />
          </g>
        </g>
      </g>
      <g
         id="text_12">
        <g
           clip-path="url(#pa8e7421a80)"
           id="g240">
          <!-- 19 -->
          <g
             style="fill:#ffffff"
             transform="matrix(0.1,0,0,-0.1,370.62835,293.73838)"
             id="g238">
            <defs
               id="defs232">
              <path
                 d="M 10.984375,1.515625 V 10.5 Q 14.703125,8.734375 18.5,7.8125 q 3.8125,-0.921875 7.484375,-0.921875 9.765625,0 14.90625,6.5625 5.15625,6.5625 5.890625,19.953125 -2.828125,-4.203125 -7.1875,-6.453125 -4.34375,-2.25 -9.609375,-2.25 -10.9375,0 -17.3125,6.609375 -6.375,6.625 -6.375,18.109375 0,11.21875 6.640625,18 6.640625,6.796875 17.671875,6.796875 12.65625,0 19.3125,-9.703125 6.671875,-9.6875 6.671875,-28.140625 0,-17.234375 -8.1875,-27.515625 -8.171875,-10.28125 -21.984375,-10.28125 -3.71875,0 -7.53125,0.734375 -3.796875,0.734375 -7.90625,2.203125 z m 19.625,30.90625 q 6.640625,0 10.515625,4.53125 3.890625,4.546875 3.890625,12.46875 0,7.859375 -3.890625,12.421875 -3.875,4.5625 -10.515625,4.5625 -6.640625,0 -10.515625,-4.5625 -3.875,-4.5625 -3.875,-12.421875 0,-7.921875 3.875,-12.46875 3.875,-4.53125 10.515625,-4.53125 z"
                 id="DejaVuSans-57" />
            </defs>
            <use
               xlink:href="#DejaVuSans-49"
               id="use234"
               x="0"
               y="0"
               width="100%"
               height="100%" />
            <use
               x="63.623047"
               xlink:href="#DejaVuSans-57"
               id="use236"
               y="0"
               width="100%"
               height="100%" />
          </g>
        </g>
      </g>
      <g
         id="text_13">
        <g
           clip-path="url(#pa8e7421a80)"
           id="g249">
          <!-- 22 -->
          <g
             style="fill:#ffffff"
             transform="matrix(0.1,0,0,-0.1,414.45072,318.36929)"
             id="g247">
            <use
               xlink:href="#DejaVuSans-50"
               id="use243"
               x="0"
               y="0"
               width="100%"
               height="100%" />
            <use
               x="63.623047"
               xlink:href="#DejaVuSans-50"
               id="use245"
               y="0"
               width="100%"
               height="100%" />
          </g>
        </g>
      </g>
    </g>
  </g>
  <defs
     id="defs257">
    <clipPath
       id="pa8e7421a80">
      <rect
         height="345.60001"
         width="460.79999"
         x="0"
         y="0"
         id="rect254" />
    </clipPath>
  </defs>
  <ellipse
     style="fill:none;stroke:#ff0000;stroke-width:0.855168;stroke-linejoin:round"
     id="path1086"
     cx="17.421911"
     cy="137.2709"
     rx="40.153862"
     ry="22.809208"
     transform="rotate(-9.6560736)" />
  <ellipse
     style="fill:none;stroke:#ff0000;stroke-width:0.742368;stroke-linejoin:round"
     id="path1092"
     cx="131.94966"
     cy="76.164352"
     rx="48.584106"
     ry="55.744453" />
  <ellipse
     style="fill:none;stroke:#ff0000;stroke-width:0.896902;stroke-linejoin:round"
     id="path1094"
     cx="231.84499"
     cy="128.9334"
     rx="47.86729"
     ry="53.652073" />
  <ellipse
     style="fill:none;stroke:#ff0000;stroke-width:0.760833;stroke-linejoin:round"
     id="path1098"
     cx="365.45789"
     cy="-85.753967"
     rx="53.361225"
     ry="17.479439"
     transform="matrix(0.61181893,0.79099785,-0.79936575,0.60084474,0,0)" />
  <ellipse
     style="fill:none;stroke:#ff0000;stroke-width:0.841347;stroke-linejoin:round"
     id="path1100"
     cx="476.88315"
     cy="86.331894"
     rx="44.669106"
     ry="16.586386"
     transform="rotate(29.25246)" />
  <text
     xml:space="preserve"
     style="font-style:normal;font-weight:normal;font-size:16px;line-height:1.25;font-family:sans-serif;letter-spacing:0px;word-spacing:0px;fill:#000000;fill-opacity:1;stroke:none;stroke-width:0.75"
     x="8.2274437"
     y="98.149384"
     id="text1104"><tspan
       sodipodi:role="line"
       id="tspan1102"
       x="8.2274437"
       y="98.149384"
       style="font-size:16px;stroke-width:0.75">1 path</tspan></text>
  <text
     xml:space="preserve"
     style="font-style:normal;font-weight:normal;font-size:16px;line-height:1.25;font-family:sans-serif;letter-spacing:0px;word-spacing:0px;fill:#000000;fill-opacity:1;stroke:none;stroke-width:0.75;stroke-linecap:butt;stroke-linejoin:round"
     x="99.778503"
     y="12.15625"
     id="text1104-8"><tspan
       sodipodi:role="line"
       id="tspan1102-8"
       x="99.778503"
       y="12.15625"
       style="font-size:16px;stroke-width:0.75">4 paths</tspan></text>
  <text
     xml:space="preserve"
     style="font-style:normal;font-weight:normal;font-size:16px;line-height:1.25;font-family:sans-serif;letter-spacing:0px;word-spacing:0px;fill:#000000;fill-opacity:1;stroke:none;stroke-width:0.75;stroke-linecap:butt;stroke-linejoin:round"
     x="203.24698"
     y="64.691193"
     id="text1104-8-8"><tspan
       sodipodi:role="line"
       id="tspan1102-8-9"
       x="203.24698"
       y="64.691193"
       style="font-size:16px;stroke-width:0.75">2 paths</tspan></text>
  <text
     xml:space="preserve"
     style="font-style:normal;font-weight:normal;font-size:16px;line-height:1.25;font-family:sans-serif;letter-spacing:0px;word-spacing:0px;fill:#000000;fill-opacity:1;stroke:none;stroke-width:0.75;stroke-linecap:butt;stroke-linejoin:round"
     x="221.09959"
     y="258.08398"
     id="text1104-3"><tspan
       sodipodi:role="line"
       id="tspan1102-0"
       x="221.09959"
       y="258.08398"
       style="font-size:16px;stroke-width:0.75">1 path</tspan></text>
  <text
     xml:space="preserve"
     style="font-style:normal;font-weight:normal;font-size:16px;line-height:1.25;font-family:sans-serif;letter-spacing:0px;word-spacing:0px;fill:#000000;fill-opacity:1;stroke:none;stroke-width:0.75;stroke-linecap:butt;stroke-linejoin:round"
     x="297.53046"
     y="329.09705"
     id="text1104-30"><tspan
       sodipodi:role="line"
       id="tspan1102-9"
       x="297.53046"
       y="329.09705"
       style="font-size:16px;stroke-width:0.75">1 path</tspan></text>
</svg>
